<?xml version="1.0" standalone="no"?>
<!DOCTYPE svg PUBLIC "-//W3C//DTD SVG 20010904//EN"
 "http://www.w3.org/TR/2001/REC-SVG-20010904/DTD/svg10.dtd">
<svg version="1.0" xmlns="http://www.w3.org/2000/svg"
 width="300.000000pt" height="122.000000pt" viewBox="0 0 300.000000 122.000000"
 preserveAspectRatio="xMidYMid meet">
<metadata>
Created by potrace 1.16, written by Peter Selinger 2001-2019
</metadata>
<g transform="translate(0.000000,122.000000) scale(0.100000,-0.100000)"
fill="#000000" stroke="none">
<path d="M134 1055 c-12 -29 -12 -43 -3 -78 7 -23 11 -52 10 -64 -1 -11 2 -24
8 -27 6 -4 15 -24 21 -45 6 -22 21 -46 35 -55 14 -9 25 -25 25 -36 0 -11 15
-37 34 -57 18 -21 36 -48 40 -59 4 -12 15 -29 25 -38 19 -17 19 -18 -2 -53
-20 -35 -20 -36 -2 -49 10 -8 34 -14 52 -14 30 0 33 -2 27 -24 -9 -37 27 -108
76 -146 41 -33 44 -33 71 -18 l27 16 69 -68 c92 -91 150 -113 283 -108 78 3
104 9 145 30 51 27 105 72 142 121 21 27 21 27 51 10 30 -17 31 -17 68 13 59
48 78 79 79 129 0 43 1 45 31 45 46 0 67 20 55 52 -5 14 -15 29 -21 33 -8 5
-5 12 8 21 11 8 23 27 27 42 3 16 21 44 40 62 19 19 35 42 35 53 0 10 14 30
30 44 17 13 30 35 30 47 0 12 7 31 15 43 8 12 15 32 15 45 0 12 3 46 6 74 12
104 -39 129 -81 41 -14 -30 -48 -78 -76 -107 -47 -49 -51 -51 -64 -34 -13 18
-16 17 -56 -24 -43 -43 -124 -101 -173 -123 -25 -12 -30 -10 -69 28 -84 81
-204 116 -323 94 -83 -15 -131 -39 -189 -95 l-46 -43 -57 34 c-81 49 -141 95
-147 115 -9 24 -37 32 -51 13 -11 -15 -17 -12 -53 24 -46 46 -87 108 -97 145
-10 41 -51 36 -70 -9z m137 -145 c25 -25 60 -57 77 -71 l31 -26 -6 31 c-6 31
-6 31 52 -22 33 -29 93 -69 135 -90 41 -20 76 -37 77 -37 1 0 4 -12 8 -27 6
-23 0 -33 -34 -67 -48 -47 -51 -69 -19 -142 20 -48 20 -52 5 -84 -9 -19 -29
-41 -45 -49 -28 -14 -31 -14 -53 10 -23 25 -23 26 -6 55 9 17 17 40 16 52 0
15 -2 17 -6 7 -3 -8 -15 -28 -26 -43 -26 -38 -37 -21 -37 61 0 60 -1 62 -20
52 -12 -6 -35 -10 -52 -8 l-31 3 32 34 c17 19 30 34 29 35 -61 36 -79 63 -35
53 21 -5 21 -5 -3 11 -47 32 -100 84 -100 99 0 10 6 13 15 9 46 -19 44 -14
-12 24 -35 24 -63 49 -63 57 0 11 5 10 28 -4 15 -9 7 1 -16 22 -35 30 -43 43
-40 65 2 14 -2 32 -9 39 -16 14 -17 41 -2 78 l11 28 26 -55 c15 -30 47 -75 73
-100z m1394 110 c7 -33 -1 -70 -16 -70 -6 0 -5 -8 1 -21 10 -18 6 -26 -34 -65
-43 -41 -55 -64 -14 -27 16 14 18 14 18 1 0 -9 -28 -34 -62 -58 -59 -39 -61
-43 -15 -25 35 14 17 -24 -33 -67 -34 -29 -45 -45 -37 -50 9 -6 6 -14 -11 -27
-12 -11 -27 -21 -33 -23 -7 -2 4 -19 22 -38 l34 -35 -32 -3 c-18 -2 -41 2 -53
8 -19 10 -20 8 -20 -52 0 -81 -11 -99 -36 -61 -10 15 -22 35 -26 43 -5 11 -7
10 -7 -6 -1 -11 6 -29 14 -40 21 -27 18 -47 -9 -73 l-24 -22 -36 31 c-47 42
-53 68 -27 118 32 63 28 104 -13 140 -49 43 -53 96 -8 107 40 10 133 69 193
122 l52 47 -5 -31 -4 -31 30 26 c72 63 133 132 150 171 23 49 32 51 41 11z
m-810 -218 c-5 -4 -15 -16 -21 -26 -14 -26 -34 -32 -34 -10 0 16 -1 16 -20 -1
-24 -22 -26 -35 -3 -35 21 0 7 -16 -29 -34 -15 -8 -23 -20 -22 -35 0 -13 -10
-35 -23 -49 -18 -20 -23 -36 -23 -82 0 -66 10 -79 67 -87 35 -5 40 -9 51 -44
7 -21 12 -50 12 -64 0 -33 61 -101 83 -92 24 9 63 77 70 121 4 24 18 51 37 71
36 37 37 45 7 45 -12 0 -28 10 -36 23 -40 63 -52 87 -44 87 5 0 19 -18 32 -40
12 -22 29 -40 37 -40 23 0 65 31 74 56 6 16 15 21 28 17 20 -5 32 -25 48 -77
14 -45 34 -45 35 1 0 21 4 47 8 58 8 19 9 18 22 -8 11 -24 10 -34 -10 -83 -14
-32 -21 -66 -18 -82 14 -73 -107 -177 -230 -197 -98 -16 -233 43 -289 126 -23
34 -30 55 -26 77 2 17 -5 49 -17 77 -12 26 -21 53 -21 59 0 7 16 27 35 46 30
29 35 40 35 81 0 43 3 50 40 79 22 18 62 40 88 51 50 19 74 24 57 11z"/>
<path d="M1610 716 c0 -8 7 -16 15 -19 37 -15 82 -155 55 -172 -23 -14 -7 -25
35 -25 42 0 58 11 35 25 -29 18 14 152 57 178 26 16 12 27 -32 27 -45 0 -58
-12 -31 -27 12 -7 12 -13 -3 -42 l-18 -33 -21 35 c-17 29 -18 36 -6 41 31 12
11 26 -36 26 -36 0 -50 -4 -50 -14z"/>
<path d="M1853 723 c-18 -7 -16 -23 2 -23 12 0 15 -16 15 -81 0 -72 -3 -83
-22 -100 -23 -18 -23 -18 40 -19 61 0 82 12 42 25 -14 4 -20 15 -20 36 0 26 3
29 30 29 36 0 80 39 80 70 0 12 -11 32 -25 45 -20 21 -34 25 -77 24 -29 0 -59
-3 -65 -6z"/>
<path d="M2020 720 c0 -6 7 -13 16 -17 14 -5 16 -18 10 -87 -4 -53 -12 -85
-21 -92 -25 -18 -17 -24 30 -24 48 0 55 6 29 24 -12 9 -14 22 -8 66 l7 55 25
-67 c34 -92 50 -91 90 10 l31 77 0 -68 c1 -51 -3 -69 -14 -73 -40 -16 -4 -24
108 -24 141 0 177 14 203 77 43 102 -45 174 -180 149 -35 -7 -51 -26 -21 -26
12 0 15 -16 15 -84 0 -77 -2 -85 -20 -91 -38 -12 -50 11 -50 95 0 60 3 79 15
84 31 12 14 27 -26 24 -40 -3 -42 -5 -61 -53 -11 -27 -25 -61 -30 -75 -9 -23
-12 -20 -38 50 l-27 75 -42 3 c-25 2 -41 -1 -41 -8z m445 -45 c52 -51 16 -145
-55 -145 l-30 0 0 85 0 85 30 0 c19 0 40 -9 55 -25z"/>
<path d="M1610 420 c0 -5 7 -10 15 -10 12 0 15 -14 15 -65 0 -37 -4 -65 -10
-65 -5 0 -10 -4 -10 -10 0 -6 30 -10 70 -10 40 0 70 4 70 10 0 6 -4 10 -10 10
-5 0 -10 21 -10 48 l0 47 38 -57 c21 -34 44 -58 55 -58 15 0 17 10 17 75 0 68
2 75 20 75 18 0 20 -7 20 -65 0 -37 -4 -65 -10 -65 -5 0 -10 -4 -10 -10 0 -14
84 -12 116 2 15 7 33 26 40 43 8 19 13 24 14 12 0 -10 11 -29 25 -42 31 -32
75 -32 110 -2 33 27 37 82 11 121 -15 24 -23 27 -64 24 -40 -3 -49 -8 -69 -37
-19 -28 -23 -30 -23 -13 0 38 -36 52 -137 52 -51 0 -93 -4 -93 -9 0 -5 5 -11
11 -13 6 -2 9 -21 7 -43 l-3 -40 -34 53 -33 52 -69 0 c-39 0 -69 -4 -69 -10z"/>
<path d="M2210 420 c0 -5 5 -10 10 -10 6 0 10 -28 10 -65 0 -37 -4 -65 -10
-65 -5 0 -10 -4 -10 -10 0 -5 16 -10 35 -10 33 0 48 14 24 22 -6 2 -9 21 -7
43 l3 40 34 -53 c47 -74 61 -69 61 23 0 73 1 75 25 75 24 0 25 -2 25 -65 0
-51 -3 -65 -15 -65 -8 0 -15 -5 -15 -10 0 -13 208 -11 233 2 10 5 17 20 17 37
0 23 -8 34 -35 50 -38 22 -47 51 -15 51 11 0 20 -7 20 -15 0 -8 5 -15 10 -15
6 0 10 11 10 25 0 22 -4 25 -34 25 -64 0 -76 -59 -19 -95 35 -21 39 -48 10
-53 -12 -3 -20 4 -24 17 -7 26 -18 26 -43 1 -11 -11 -31 -20 -45 -20 -21 0
-25 5 -25 30 0 20 5 30 15 30 8 0 15 -4 15 -10 0 -5 5 -10 10 -10 6 0 10 11
10 25 0 22 -3 25 -25 19 -22 -5 -25 -3 -25 20 0 21 5 26 25 26 14 0 28 -7 31
-15 9 -24 24 -17 24 10 l0 25 -100 0 c-60 0 -100 -4 -100 -10 0 -5 5 -10 10
-10 6 0 10 -21 10 -47 l0 -48 -38 57 c-30 47 -42 58 -64 58 -16 0 -28 -4 -28
-10z"/>
<path d="M2635 420 c-3 -5 1 -10 9 -10 13 0 16 -13 16 -65 0 -37 -4 -65 -10
-65 -5 0 -10 -4 -10 -10 0 -6 28 -10 65 -10 36 0 65 4 65 9 0 5 -5 11 -11 13
-19 6 3 38 26 38 23 0 45 -32 26 -38 -24 -8 -9 -22 24 -22 35 0 43 8 26 26 -5
5 -19 40 -31 77 -28 86 -43 85 -80 -8 -38 -96 -60 -100 -60 -11 0 37 4 66 10
66 6 0 10 5 10 10 0 6 -15 10 -34 10 -19 0 -38 -4 -41 -10z"/>
</g>
</svg>
