<?xml version="1.0" standalone="no"?>
<!DOCTYPE svg PUBLIC "-//W3C//DTD SVG 20010904//EN"
 "http://www.w3.org/TR/2001/REC-SVG-20010904/DTD/svg10.dtd">
<svg version="1.0" xmlns="http://www.w3.org/2000/svg"
 width="140.000000pt" height="85.000000pt" viewBox="0 0 140.000000 85.000000"
 preserveAspectRatio="xMidYMid meet">

<g transform="translate(0.000000,85.000000) scale(0.100000,-0.100000)"
fill="#000000" stroke="none">
<path d="M647 806 c-84 -30 -149 -91 -182 -169 -19 -47 -20 -169 0 -206 8 -16
11 -32 7 -36 -4 -3 -2 -5 3 -3 6 1 35 -10 66 -27 l57 -29 35 27 c35 27 36 27
47 7 15 -29 32 -25 28 8 -3 23 -10 29 -52 39 -56 14 -92 43 -112 93 -11 26
-12 41 -4 58 7 16 7 29 0 43 -9 16 -7 19 11 19 16 0 19 4 14 18 -16 39 -16 51
3 70 11 11 23 30 27 41 4 13 11 18 18 14 7 -4 27 -8 45 -9 29 -1 32 2 32 28 0
15 -1 28 -2 28 -2 -1 -20 -7 -41 -14z"/>
<path d="M730 812 c0 -5 7 -16 16 -23 14 -12 16 -11 13 5 -4 20 -29 35 -29 18z"/>
<path d="M792 795 c6 -13 24 -28 39 -34 31 -11 37 -29 17 -49 -9 -9 -6 -12 15
-12 22 0 27 -5 27 -23 0 -16 9 -28 25 -35 29 -13 31 -29 10 -59 -8 -12 -12
-28 -9 -36 3 -8 -2 -17 -13 -21 -14 -6 -15 -9 -3 -16 12 -7 11 -12 -4 -29 -11
-12 -27 -21 -38 -21 -10 0 -28 -11 -40 -25 -23 -27 -62 -33 -72 -12 -3 6 -4
-1 0 -18 8 -44 17 -49 93 -49 57 -1 75 3 100 22 17 12 31 20 31 16 0 -18 -47
-67 -90 -95 -56 -36 -61 -54 -6 -20 95 59 154 172 143 276 -11 105 -97 216
-194 249 l-42 14 11 -23z"/>
<path d="M662 705 c-6 -14 -8 -25 -4 -25 12 0 32 23 32 37 0 22 -16 15 -28
-12z"/>
<path d="M751 703 c0 -6 -10 -15 -22 -18 -19 -6 -20 -7 -2 -20 15 -11 19 -11
26 1 5 8 6 22 4 32 -3 9 -5 12 -6 5z"/>
<path d="M627 632 c-5 -7 -13 -9 -19 -6 -6 4 -9 1 -6 -7 3 -8 16 -20 30 -28
21 -12 29 -12 56 0 18 8 32 20 32 26 0 17 -15 16 -30 -2 -19 -23 -48 -19 -52
8 -2 15 -5 18 -11 9z"/>
<path d="M815 628 c-30 -16 -65 -50 -65 -62 0 -6 7 0 16 12 8 12 22 22 30 22
8 0 14 5 14 11 0 8 5 7 16 -2 13 -10 17 -10 25 2 19 30 2 38 -36 17z"/>
<path d="M833 567 c4 -11 4 -24 0 -30 -4 -7 -10 -2 -14 13 l-7 25 -1 -27 c-1
-29 5 -33 33 -22 21 8 20 28 -1 45 -15 12 -16 12 -10 -4z"/>
<path d="M742 525 c0 -16 2 -22 5 -12 2 9 2 23 0 30 -3 6 -5 -1 -5 -18z"/>
<path d="M665 530 c3 -5 11 -10 16 -10 6 0 7 5 4 10 -3 6 -11 10 -16 10 -6 0
-7 -4 -4 -10z"/>
<path d="M590 516 c0 -2 7 -9 15 -16 12 -10 15 -10 15 4 0 9 -7 16 -15 16 -8
0 -15 -2 -15 -4z"/>
<path d="M680 471 c0 -5 7 -14 15 -21 13 -10 15 -9 15 9 0 12 -6 21 -15 21 -8
0 -15 -4 -15 -9z"/>
<path d="M765 460 c-3 -5 -2 -10 4 -10 5 0 13 5 16 10 3 6 2 10 -4 10 -5 0
-13 -4 -16 -10z"/>
<path d="M235 380 c-10 -17 5 -30 33 -30 15 0 64 -9 110 -20 123 -30 121 -23
-8 21 -127 43 -126 43 -135 29z"/>
<path d="M1170 379 c-59 -16 -181 -61 -177 -66 5 -5 185 34 215 47 23 10 30
31 10 29 -7 0 -29 -5 -48 -10z"/>
<path d="M525 330 c21 -22 41 -40 44 -40 3 0 -13 18 -34 40 -21 22 -41 40 -44
40 -3 0 13 -18 34 -40z"/>
<path d="M210 310 c0 -11 47 -24 165 -44 158 -28 157 -18 -2 25 -112 30 -163
36 -163 19z"/>
<path d="M1075 287 c-60 -17 -104 -32 -98 -34 11 -4 228 31 266 43 9 3 17 10
17 15 0 17 -74 8 -185 -24z"/>
<path d="M186 251 c-15 -24 9 -31 115 -31 119 0 139 13 37 24 -35 4 -82 9
-104 12 -25 4 -44 2 -48 -5z"/>
<path d="M1080 236 c-55 -11 -54 -11 59 -14 119 -3 147 1 136 18 -8 13 -124
11 -195 -4z"/>
<path d="M378 190 c-102 -3 -189 -8 -192 -11 -11 -11 201 -19 478 -19 319 0
620 10 609 20 -10 10 -649 17 -895 10z"/>
</g>
</svg>
